PathFileType	4	(X/Y/Z)	SUBJ26_1_walk_RCNL2025.trc
DataRate	CameraRate	NumFrames	NumMarkers	Units	OrigDataRate	OrigDataStartFrame	OrigNumFrames
100	100	7	25	mm	100	289	385
Frame#	Time	R_Shoulder			L_Shoulder			C7			J_Notch			R_Elbow			L_Elbow			R_Wrist			L_Wrist			R_Asis			L_Asis			Sacral			Thoracic			Sternum			R_Thigh_Lateral			R_Knee_Lateral			R_Shank_Lateral			R_Ankle_Lateral			R_Heel			R_Toe			L_Thigh_Lateral			L_Knee_Lateral			L_Shank_Lateral			L_Ankle_Lateral			L_Heel			L_Toe		
		X1	Y1	Z1	X2	Y2	Z2	X3	Y3	Z3	X4	Y4	Z4	X5	Y5	Z5	X6	Y6	Z6	X7	Y7	Z7	X8	Y8	Z8	X9	Y9	Z9	X10	Y10	Z10	X11	Y11	Z11	X12	Y12	Z12	X13	Y13	Z13	X14	Y14	Z14	X15	Y15	Z15	X16	Y16	Z16	X17	Y17	Z17	X18	Y18	Z18	X19	Y19	Z19	X20	Y20	Z20	X21	Y21	Z21	X22	Y22	Z22	X23	Y23	Z23	X24	Y24	Z24	X25	Y25	Z25
289	2.88000000	920.580566	1321.205078	311.564362	900.439880	1327.438354	-23.602262	829.687561	1386.203613	157.481873	973.505432	1286.273438	136.367599	831.755859	1007.420410	407.924042	839.770691	1006.855164	-126.985062	908.855438	765.929840	405.073090	941.729431	783.944427	-154.884453	946.733948	911.112854	278.535522	919.066589	927.592102	-23.922071	728.874207	926.809814	149.355927	747.354431	1040.457275	150.963120	1014.376770	1027.019287	145.195557	922.393677	579.199158	342.058472	980.411072	446.314789	296.454498	897.826904	328.078979	332.693481	762.677307	135.440094	250.349548	711.995605	154.143295	189.743774	858.530640	65.677620	222.585632	885.473145	610.027527	-50.763130	888.302979	441.532928	32.743488	868.352295	260.527374	-27.564991	834.181458	59.887962	65.723610	766.140808	43.137005	111.449341	948.246460	44.495205	112.033188
290	2.89000000	931.687195	1321.411499	311.744904	913.745850	1327.596436	-23.660305	841.961914	1386.377563	156.757019	985.793518	1286.177856	136.780884	841.224304	1007.531860	407.031311	857.495422	1007.104919	-128.697723	917.757355	765.902832	403.932404	964.657288	786.602356	-156.228851	958.820007	911.681274	277.650177	930.348206	927.415161	-24.593010	740.608337	926.947754	149.720917	759.225281	1040.687378	150.348862	1026.123413	1027.016968	145.487549	941.066040	580.258911	340.935364	1003.246094	448.756531	294.805206	926.790588	326.060883	332.089203	801.607605	126.110619	251.120728	749.649109	140.866638	190.384995	902.113770	63.288734	224.349976	894.642822	609.896179	-50.680130	891.790588	441.341736	32.944019	870.166992	260.383301	-27.385992	834.320312	59.927017	65.802353	766.222656	43.337296	111.466827	948.370300	44.489838	112.175781
291	2.90000000	942.790161	1321.390625	311.931335	927.035400	1327.506592	-23.673649	854.213501	1386.363037	156.029404	998.083801	1285.891113	137.218628	850.766052	1007.459595	406.235352	875.291931	1007.172852	-130.306671	926.794922	765.707611	402.950348	987.514526	789.152008	-157.427650	970.953247	912.054993	276.775787	941.586121	927.012024	-25.279112	752.368774	926.874756	150.157211	771.121338	1040.719849	149.855133	1037.906494	1026.899048	145.738541	959.624390	581.312134	339.912903	1025.369629	451.083130	293.042267	955.456909	324.150177	331.461273	841.479919	116.881165	252.057587	788.583435	127.509949	191.213257	946.185425	61.340813	226.299850	903.515808	609.605835	-50.578495	895.146484	441.149445	33.147682	871.931213	260.269470	-27.233471	834.453003	59.981808	65.852921	766.317932	43.536209	111.445435	948.483154	44.498486	112.291916
292	2.91000000	953.916504	1321.136597	312.119232	940.305786	1327.160278	-23.632908	866.449158	1386.154907	155.318420	1010.376099	1285.416626	137.669556	860.412537	1007.208130	405.536926	893.162109	1007.071594	-131.802368	935.977875	765.341278	402.134598	1010.276855	791.583557	-158.480560	983.124695	912.211670	275.938538	952.812988	926.397278	-25.961626	764.176575	926.620605	150.634674	783.059570	1040.557007	149.491196	1049.719604	1026.664673	145.965012	977.943115	582.310120	338.934021	1046.689697	453.237732	291.218933	983.715271	322.368286	330.811890	882.234436	107.966095	253.097702	828.734375	114.355736	192.176086	990.628113	59.969326	228.324905	912.035278	609.187988	-50.467548	898.333496	440.982452	33.348896	873.602356	260.201721	-27.102497	834.575195	60.064075	65.890251	766.416077	43.752636	111.402588	948.571533	44.502224	112.394440
293	2.92000000	965.093262	1320.650146	312.305481	953.553101	1326.557739	-23.530455	878.679443	1385.744385	154.649658	1022.669006	1284.755981	138.123978	870.189026	1006.785950	404.938751	911.099243	1006.817261	-133.176285	945.315521	764.806671	401.490250	1032.921692	793.894226	-159.385605	995.337769	912.131653	275.155457	964.063599	925.597412	-26.624403	776.053894	926.206909	151.129547	795.054138	1040.197754	149.260468	1061.561401	1026.299438	146.181534	995.880981	583.186890	337.928253	1067.125244	455.155396	289.378998	1011.476013	320.708679	330.146881	923.770142	99.578339	254.166702	869.978882	101.701385	193.206543	1035.304321	59.298450	230.306366	920.113831	608.674927	-50.368626	901.310913	440.872498	33.540947	875.123840	260.198090	-26.987123	834.680908	60.188503	65.936302	766.502502	44.013020	111.371552	948.620361	44.477512	112.503670
294	2.93000000	976.346741	1319.938477	312.487946	966.774414	1325.707520	-23.360519	890.913940	1385.121582	154.050430	1034.962524	1283.911377	138.573074	880.115112	1006.202820	404.443481	929.087585	1006.428162	-134.423416	954.815826	764.108978	401.018356	1055.424194	796.087250	-160.138687	1007.605957	911.799988	274.435669	975.371216	924.646362	-27.254604	788.020447	925.645447	151.624664	807.115234	1039.639160	149.160004	1073.437988	1025.777954	146.400772	1013.299744	583.866577	336.829590	1086.614380	456.768127	287.555756	1038.676025	319.145447	329.472900	965.932190	91.920441	255.181351	912.130798	89.845886	194.229767	1080.050903	59.434162	232.123459	927.649414	608.103149	-50.310768	904.057373	440.855591	33.714626	876.441040	260.276581	-26.882401	834.764038	60.373283	66.017769	766.567078	44.348263	111.395439	948.623413	44.411179	112.635139
295	2.94000000	987.700134	1319.014282	312.666595	979.968445	1324.626221	-23.119568	903.158142	1384.281006	153.545029	1047.259155	1282.886475	139.009293	890.205322	1005.466370	404.052155	947.102295	1005.924866	-135.542740	964.483917	763.253387	400.714340	1077.756165	798.170166	-160.733376	1019.946838	911.206360	273.780396	986.763611	923.578918	-27.842402	800.089722	924.939026	152.109619	819.248352	1038.879028	149.181305	1085.362915	1025.069092	146.634674	1030.077271	584.270813	335.593323	1105.124756	458.013672	285.773346	1065.277954	317.647430	328.792236	1008.502625	85.178986	256.062653	954.936279	79.071548	195.169373	1124.667236	60.446602	233.666458	934.552490	607.514587	-50.323288	906.597900	440.969849	33.856834	877.521179	260.452911	-26.784288	834.819763	60.639080	66.163498	766.609009	44.792885	111.521294	948.591553	44.311947	112.788864
